<mxfile host="app.diagrams.net" modified="2023-04-01T09:08:06.500Z" agent="Mozilla/5.0 (Windows NT 10.0; Win64; x64) AppleWebKit/537.36 (KHTML, like Gecko) Chrome/111.0.0.0 Safari/537.36 Edg/111.0.1661.54" etag="SZ1HTCJJaxY4xV66GpDS" version="21.1.2" type="device">
  <diagram name="Страница 1" id="xN085AevRExuSiY-HjMy">
    <mxGraphModel dx="968" dy="569" grid="1" gridSize="10" guides="1" tooltips="1" connect="1" arrows="1" fold="1" page="1" pageScale="1" pageWidth="827" pageHeight="1169" math="0" shadow="0">
      <root>
        <mxCell id="0" />
        <mxCell id="1" parent="0" />
        <mxCell id="C7Hna8RxLzFOYUcjddv6-8" style="edgeStyle=orthogonalEdgeStyle;rounded=0;orthogonalLoop=1;jettySize=auto;html=1;exitX=1;exitY=0.5;exitDx=0;exitDy=0;" parent="1" source="C7Hna8RxLzFOYUcjddv6-1" target="C7Hna8RxLzFOYUcjddv6-2" edge="1">
          <mxGeometry relative="1" as="geometry" />
        </mxCell>
        <mxCell id="C7Hna8RxLzFOYUcjddv6-1" value="Модуль обработки хода" style="rounded=0;whiteSpace=wrap;html=1;" parent="1" vertex="1">
          <mxGeometry x="349" y="230" width="130" height="80" as="geometry" />
        </mxCell>
        <mxCell id="C7Hna8RxLzFOYUcjddv6-18" style="edgeStyle=orthogonalEdgeStyle;rounded=0;orthogonalLoop=1;jettySize=auto;html=1;exitX=0.75;exitY=1;exitDx=0;exitDy=0;entryX=1;entryY=0.5;entryDx=0;entryDy=0;" parent="1" source="C7Hna8RxLzFOYUcjddv6-2" target="C7Hna8RxLzFOYUcjddv6-14" edge="1">
          <mxGeometry relative="1" as="geometry" />
        </mxCell>
        <mxCell id="C7Hna8RxLzFOYUcjddv6-19" style="edgeStyle=orthogonalEdgeStyle;rounded=0;orthogonalLoop=1;jettySize=auto;html=1;exitX=0.25;exitY=1;exitDx=0;exitDy=0;entryX=1;entryY=0.5;entryDx=0;entryDy=0;" parent="1" source="C7Hna8RxLzFOYUcjddv6-2" target="C7Hna8RxLzFOYUcjddv6-10" edge="1">
          <mxGeometry relative="1" as="geometry" />
        </mxCell>
        <mxCell id="C7Hna8RxLzFOYUcjddv6-2" value="Модуль вывода результата раунда" style="rounded=0;whiteSpace=wrap;html=1;" parent="1" vertex="1">
          <mxGeometry x="520" y="330" width="130" height="70" as="geometry" />
        </mxCell>
        <mxCell id="C7Hna8RxLzFOYUcjddv6-4" value="Вывод быков и коров&lt;br&gt;&lt;p class=&quot;MsoListParagraph&quot;&gt;-&lt;span&gt;&lt;/span&gt;&lt;span&gt;визуальная&lt;br&gt;интеграция подсчета “Быков” и “Коров” &lt;br&gt;(На экран будет выводится столько «Быков»&lt;br&gt;и «Коров»,&lt;br&gt;&amp;nbsp;сколько их присутствует в числе)&lt;/span&gt;&lt;/p&gt;" style="text;html=1;align=center;verticalAlign=middle;resizable=0;points=[];autosize=1;strokeColor=none;fillColor=none;" parent="1" vertex="1">
          <mxGeometry x="351" y="450" width="270" height="120" as="geometry" />
        </mxCell>
        <mxCell id="C7Hna8RxLzFOYUcjddv6-7" style="edgeStyle=orthogonalEdgeStyle;rounded=0;orthogonalLoop=1;jettySize=auto;html=1;exitX=1;exitY=0.5;exitDx=0;exitDy=0;entryX=0;entryY=0.5;entryDx=0;entryDy=0;" parent="1" source="C7Hna8RxLzFOYUcjddv6-5" target="C7Hna8RxLzFOYUcjddv6-1" edge="1">
          <mxGeometry relative="1" as="geometry" />
        </mxCell>
        <mxCell id="C7Hna8RxLzFOYUcjddv6-5" value="Модуль ввода информации" style="rounded=0;whiteSpace=wrap;html=1;" parent="1" vertex="1">
          <mxGeometry x="130" y="230" width="130" height="80" as="geometry" />
        </mxCell>
        <mxCell id="C7Hna8RxLzFOYUcjddv6-9" value="Ввод числа" style="text;html=1;align=center;verticalAlign=middle;resizable=0;points=[];autosize=1;strokeColor=none;fillColor=none;" parent="1" vertex="1">
          <mxGeometry x="260" y="240" width="90" height="30" as="geometry" />
        </mxCell>
        <mxCell id="C7Hna8RxLzFOYUcjddv6-12" style="edgeStyle=orthogonalEdgeStyle;rounded=0;orthogonalLoop=1;jettySize=auto;html=1;exitX=0;exitY=0.5;exitDx=0;exitDy=0;entryX=0;entryY=0.5;entryDx=0;entryDy=0;" parent="1" source="C7Hna8RxLzFOYUcjddv6-10" target="C7Hna8RxLzFOYUcjddv6-5" edge="1">
          <mxGeometry relative="1" as="geometry">
            <Array as="points">
              <mxPoint x="100" y="450" />
              <mxPoint x="100" y="270" />
            </Array>
          </mxGeometry>
        </mxCell>
        <mxCell id="C7Hna8RxLzFOYUcjddv6-10" value="Модуль начала нового хода" style="rounded=0;whiteSpace=wrap;html=1;" parent="1" vertex="1">
          <mxGeometry x="230" y="410" width="120" height="80" as="geometry" />
        </mxCell>
        <mxCell id="C7Hna8RxLzFOYUcjddv6-16" style="edgeStyle=orthogonalEdgeStyle;rounded=0;orthogonalLoop=1;jettySize=auto;html=1;exitX=0;exitY=0.5;exitDx=0;exitDy=0;entryX=0;entryY=0.5;entryDx=0;entryDy=0;" parent="1" source="C7Hna8RxLzFOYUcjddv6-14" target="C7Hna8RxLzFOYUcjddv6-5" edge="1">
          <mxGeometry relative="1" as="geometry">
            <Array as="points">
              <mxPoint x="100" y="560" />
              <mxPoint x="100" y="270" />
            </Array>
          </mxGeometry>
        </mxCell>
        <mxCell id="C7Hna8RxLzFOYUcjddv6-14" value="Кнопка начала новой игры" style="rounded=0;whiteSpace=wrap;html=1;" parent="1" vertex="1">
          <mxGeometry x="230" y="520" width="121" height="80" as="geometry" />
        </mxCell>
        <mxCell id="C7Hna8RxLzFOYUcjddv6-20" value="Нажатие кнопки" style="text;html=1;align=center;verticalAlign=middle;resizable=0;points=[];autosize=1;strokeColor=none;fillColor=none;" parent="1" vertex="1">
          <mxGeometry x="120" y="535" width="110" height="30" as="geometry" />
        </mxCell>
        <mxCell id="C7Hna8RxLzFOYUcjddv6-21" value="Повторный ввод числа" style="text;html=1;align=center;verticalAlign=middle;resizable=0;points=[];autosize=1;strokeColor=none;fillColor=none;" parent="1" vertex="1">
          <mxGeometry x="90" y="420" width="150" height="30" as="geometry" />
        </mxCell>
        <mxCell id="C7Hna8RxLzFOYUcjddv6-22" value="Подсчет быков и коров" style="text;html=1;align=center;verticalAlign=middle;resizable=0;points=[];autosize=1;strokeColor=none;fillColor=none;" parent="1" vertex="1">
          <mxGeometry x="470" y="240" width="150" height="30" as="geometry" />
        </mxCell>
      </root>
    </mxGraphModel>
  </diagram>
</mxfile>
